<svg width="68" height="68" viewBox="0 0 68 68" fill="none" xmlns="http://www.w3.org/2000/svg">
<path d="M36.9551 53.3848C35.2051 53.0798 35.2051 50.5598 36.9551 50.2548C40.0511 49.7142 42.9174 48.2682 45.1921 46.0995C47.4667 43.9307 49.0476 41.1365 49.7351 38.0698L49.8551 37.5198C50.2351 35.7848 52.7051 35.7748 53.1001 37.5048L53.2501 38.1698C53.9641 41.2161 55.5583 43.9851 57.8342 46.1321C60.1102 48.2792 62.9674 49.7094 66.0501 50.2448C67.8151 50.5548 67.8151 53.0848 66.0501 53.3948C62.9498 53.9328 60.0779 55.3758 57.7958 57.5422C55.5138 59.7086 53.9235 62.5016 53.2251 65.5698L53.1001 66.1298C52.7001 67.8648 50.2351 67.8498 49.8501 66.1198L49.7501 65.6348C49.073 62.554 47.4949 59.7443 45.2165 57.563C42.9381 55.3816 40.0624 53.9272 36.9551 53.3848Z" stroke="#000080" stroke-linecap="round" stroke-linejoin="round"/>
<path d="M36.9551 53.3848C35.2051 53.0798 35.2051 50.5598 36.9551 50.2548C40.0511 49.7142 42.9174 48.2682 45.1921 46.0995C47.4667 43.9307 49.0476 41.1365 49.7351 38.0698L49.8551 37.5198C50.2351 35.7848 52.7051 35.7748 53.1001 37.5048L53.2501 38.1698C53.9641 41.2161 55.5583 43.9851 57.8342 46.1321C60.1102 48.2792 62.9674 49.7094 66.0501 50.2448C67.8151 50.5548 67.8151 53.0848 66.0501 53.3948C62.9498 53.9328 60.0779 55.3758 57.7958 57.5422C55.5138 59.7086 53.9235 62.5016 53.2251 65.5698L53.1001 66.1298C52.7001 67.8648 50.2351 67.8498 49.8501 66.1198L49.7501 65.6348C49.073 62.554 47.4949 59.7443 45.2165 57.563C42.9381 55.3816 40.0624 53.9272 36.9551 53.3848Z" fill="#000080"/>
<path fill-rule="evenodd" clip-rule="evenodd" d="M0.125 43.9892C0.125 48.7092 3.95 52.5292 8.665 52.5292H26.915C26.7104 49.8132 27.5691 47.124 29.31 45.0292H8.875C8.54348 45.0292 8.22554 44.8975 7.99112 44.6631C7.7567 44.4287 7.625 44.1107 7.625 43.7792V29.1992L8.64 29.0192C13.4182 28.1619 18.3405 28.6464 22.8599 30.4189C27.3792 32.1913 31.3185 35.1822 34.24 39.0592L36.08 41.4942C37.338 41.1603 38.48 40.487 39.3812 39.5478C40.2825 38.6087 40.9082 37.4399 41.19 36.1692L41.305 35.6492C42.78 28.9242 49.27 26.3342 54.585 27.9092V8.61422C54.585 3.89922 50.76 0.0742188 46.045 0.0742188H8.665C3.95 0.0742187 0.125 3.89922 0.125 8.61422V43.9892ZM39.41 22.6642C41.2281 22.6642 42.9717 21.942 44.2572 20.6564C45.5428 19.3709 46.265 17.6273 46.265 15.8092C46.265 13.9912 45.5428 12.2476 44.2572 10.962C42.9717 9.67644 41.2281 8.95422 39.41 8.95422C37.5919 8.95422 35.8483 9.67644 34.5628 10.962C33.2772 12.2476 32.555 13.9912 32.555 15.8092C32.555 17.6273 33.2772 19.3709 34.5628 20.6564C35.8483 21.942 37.5919 22.6642 39.41 22.6642Z" fill="#000080"/>
</svg>
